# xmcd CD database file
#
# Track frame offsets:
#	150
#	35007
#	54745
#	83065
#	106287
#	128220
#	154527
#	175867
#	211702
#
# Disc length: 3493 seconds
#
# Revision: 13
# Processed by: cddbd v1.5.2PL0 Copyright (c) Steve Scherf et al.
# Submitted via: CDex 1.70beta2
#
DISCID=6e0da309
DTITLE=Kenny Garrett - Standards of Language
DYEAR=2003
DGENRE=Jazz
TTITLE0=What is This Thing Called Love
TTITLE1=Kurita Sensai
TTITLE2=XYZ
TTITLE3=Native Tongue
TTITLE4=Chief Blackwater
TTITLE5=Doc Tone's Short Speech
TTITLE6=Just a Second to Catch My Breath
TTITLE7=Gendai
TTITLE8=Standard of Language 1 2 3
EXTD=YEAR: 2003
EXTT0=
EXTT1=
EXTT2=
EXTT3=
EXTT4=
EXTT5=
EXTT6=
EXTT7=
EXTT8=
PLAYORDER=
